PathFileType	4	(X/Y/Z)	OpenSim_Sub06_CSStiffKnee_Magnet.trc
DataRate	CameraRate	NumFrames	NumMarkers	Units	OrigDataRate	OrigDataStartFrame	OrigNumFrames
100	100	36	8	m	100	1792	7164
Frame#	Time	torso_imu_offset_imu	pelvis_imu_offset_imu	tibia_r_imu_offset_imu	femur_r_imu_offset_imu	tibia_l_imu_offset_imu	femur_l_imu_offset_imu	toes_r_imu_offset_imu	toes_l_imu_offset_imu
				X1	Y1	Z1	X2	Y2	Z2	X3	Y3	Z3	X4	Y4	Z4	X5	Y5	Z5	X6	Y6	Z6	X7	Y7	Z7	X8		Y8	Z8	

1792	17.91000000	-0.91198968	-0.16282658	0.16243261	-0.42652793	0.25736300	-0.78834513	-0.55516943	-0.53059310	-0.27772393	-0.80302412	-0.25650435	0.01391380	-0.59737152	0.56274904	0.09158544	-0.40934993	0.31447923	0.41504267	-0.60386378	-0.22703742	-0.47107610	-0.74430734	-0.07544433	-0.34137134
1793	17.92000000	-0.90816177	-0.16372488	0.16915263	-0.43193438	0.25372879	-0.78788651	-0.57795393	-0.50758097	-0.27932550	-0.79827977	-0.25994445	0.01483158	-0.59709642	0.56360037	0.09437588	-0.40606533	0.32505790	0.41839450	-0.60338655	-0.19810784	-0.48463157	-0.74553756	-0.06997277	-0.34478692
1794	17.93000000	-0.91180396	-0.16659057	0.16111046	-0.43021608	0.26096185	-0.78756988	-0.60108609	-0.49117470	-0.27347977	-0.80014081	-0.26912415	0.01265648	-0.58794476	0.56887016	0.10044071	-0.40310771	0.33064133	0.41480488	-0.60108444	-0.17046466	-0.49279449	-0.74464622	-0.07179756	-0.34480334
1795	17.94000000	-0.91571166	-0.16490415	0.16373567	-0.42949281	0.25992928	-0.78719725	-0.61276050	-0.47267979	-0.26405680	-0.79702721	-0.27222709	0.02152949	-0.58479832	0.57051924	0.09948728	-0.40330460	0.33350910	0.41160525	-0.59291899	-0.14394948	-0.50140807	-0.74879757	-0.07274881	-0.34097112
1796	17.95000000	-0.91725419	-0.16793427	0.16145901	-0.43519634	0.25730250	-0.78174422	-0.62638700	-0.45561690	-0.25482505	-0.79556497	-0.27148332	0.02612202	-0.58296186	0.57939302	0.09231271	-0.40020670	0.33353605	0.41792450	-0.59011957	-0.13948622	-0.51112062	-0.74747869	-0.07117307	-0.33586216
1797	17.96000000	-0.91584167	-0.16868974	0.16136484	-0.43610956	0.25884400	-0.78386735	-0.63930046	-0.43746454	-0.25301450	-0.79683049	-0.27436985	0.03098200	-0.58074891	0.58266840	0.09742804	-0.39542099	0.34202416	0.41299388	-0.58236455	-0.12453971	-0.52368195	-0.74636704	-0.06940449	-0.33218957
1798	17.97000000	-0.91111009	-0.17041897	0.15953907	-0.43478885	0.25665774	-0.78192742	-0.65260745	-0.42393754	-0.25353289	-0.79698063	-0.27348200	0.04687440	-0.57437393	0.58868536	0.10309774	-0.39318728	0.35150104	0.41139008	-0.57866650	-0.11229052	-0.52951480	-0.74959521	-0.06347096	-0.34271069
1799	17.98000000	-0.91224986	-0.17197583	0.15917453	-0.44300650	0.25285467	-0.78484925	-0.66402283	-0.41158415	-0.25033027	-0.78953126	-0.27251043	0.05675197	-0.56266717	0.59695016	0.09863204	-0.39139461	0.35275089	0.41473681	-0.57227408	-0.10333737	-0.53249245	-0.75028033	-0.06086388	-0.34097605
1800	17.99000000	-0.91641743	-0.17016508	0.15655290	-0.44440751	0.24854277	-0.78227640	-0.66964944	-0.40336872	-0.24729511	-0.78945938	-0.26624882	0.05423661	-0.55704732	0.60456858	0.10193351	-0.38620661	0.36113224	0.41710319	-0.57140567	-0.09564588	-0.53836619	-0.75369081	-0.05323642	-0.34169609
1801	18.00000000	-0.91592017	-0.17158607	0.15461257	-0.44972041	0.24607815	-0.78004075	-0.66879673	-0.39830557	-0.24778964	-0.79388418	-0.26796311	0.05286951	-0.55190767	0.61531329	0.09247453	-0.38672697	0.36212772	0.41938454	-0.57403952	-0.09632392	-0.53567501	-0.76030521	-0.04848682	-0.33657904
1802	18.01000000	-0.92190350	-0.16881492	0.15208717	-0.45139750	0.23602881	-0.78371517	-0.66400884	-0.39589119	-0.24890899	-0.79251396	-0.25876562	0.05238793	-0.54049589	0.61977104	0.09441855	-0.38387164	0.36526890	0.41725783	-0.57334595	-0.10723367	-0.52446238	-0.75896607	-0.04945004	-0.32981718
1803	18.02000000	-0.92055098	-0.17467715	0.15066958	-0.45023705	0.23272935	-0.78441647	-0.66728850	-0.40027268	-0.25367937	-0.79379637	-0.25063701	0.05366918	-0.53434049	0.62790709	0.09510149	-0.38249166	0.36954314	0.42475368	-0.58342792	-0.13841343	-0.50111505	-0.76758223	-0.04314019	-0.33377418
1804	18.03000000	-0.92194236	-0.16796148	0.14571660	-0.45554337	0.22838736	-0.78382006	-0.66774116	-0.40087874	-0.25806027	-0.79410368	-0.24921988	0.05725888	-0.51831542	0.64154394	0.09035225	-0.38284656	0.37497057	0.41538841	-0.60825057	-0.15439193	-0.46905419	-0.77276546	-0.03204269	-0.32425412
1805	18.04000000	-0.92309579	-0.16989337	0.13456873	-0.45807837	0.22311585	-0.78332423	-0.66076513	-0.41078377	-0.26233852	-0.79865945	-0.24764049	0.05722305	-0.50551378	0.64988173	0.08316189	-0.38348816	0.37925602	0.41238625	-0.61666371	-0.16893853	-0.46386752	-0.77611522	-0.03110599	-0.30901876
1806	18.05000000	-0.92456323	-0.17170935	0.13587960	-0.45784023	0.21001540	-0.78739782	-0.65070573	-0.41514990	-0.26107893	-0.79320842	-0.24765330	0.06534206	-0.48877517	0.66396360	0.07927383	-0.38616694	0.37602017	0.40395299	-0.59046445	-0.18249998	-0.48164454	-0.78301061	-0.02516213	-0.30649384
1807	18.06000000	-0.92649004	-0.17415861	0.13673503	-0.46434391	0.19843076	-0.77554585	-0.64435988	-0.42837122	-0.26021030	-0.79341330	-0.24431969	0.07806381	-0.47340206	0.67485833	0.07907309	-0.38725676	0.37443330	0.40335714	-0.59909387	-0.17215903	-0.48170124	-0.78693893	-0.02026563	-0.28728387
1808	18.07000000	-0.92373039	-0.17502245	0.12643918	-0.47002226	0.19780733	-0.77873567	-0.63355662	-0.44479376	-0.26597986	-0.79382090	-0.24210702	0.08289780	-0.46127445	0.69049348	0.08198390	-0.38841354	0.37121908	0.40323306	-0.59549659	-0.18766667	-0.48403216	-0.79305417	-0.01216301	-0.27506656
1809	18.08000000	-0.92796923	-0.17270716	0.12669590	-0.46787709	0.19919355	-0.77861535	-0.62159516	-0.45932528	-0.25685388	-0.79081634	-0.24283777	0.08390066	-0.44338305	0.69639037	0.08262701	-0.39607787	0.36347598	0.39880380	-0.59328281	-0.18579303	-0.47867062	-0.80333087	0.00477392	-0.25611517
1810	18.09000000	-0.92793761	-0.17497085	0.12104012	-0.47108789	0.20224063	-0.77492546	-0.61215576	-0.47815062	-0.24889918	-0.79700168	-0.23459322	0.08022051	-0.42285136	0.71047326	0.08032645	-0.40473955	0.35412957	0.39516058	-0.59508892	-0.18594041	-0.48265853	-0.81185851	0.01517095	-0.22668948
1811	18.10000000	-0.93412248	-0.17606606	0.12668367	-0.47287917	0.20778589	-0.77945568	-0.60180475	-0.50155377	-0.23119074	-0.79839370	-0.22436056	0.07493890	-0.39902350	0.72728840	0.08273748	-0.41293832	0.34254985	0.39492430	-0.59993364	-0.18882062	-0.47427498	-0.81917710	0.03376152	-0.19105812
1812	18.11000000	-0.93300234	-0.17142025	0.12028998	-0.47151151	0.21730812	-0.78279094	-0.59530933	-0.52466378	-0.20837535	-0.79559342	-0.22634735	0.07185585	-0.38325076	0.73511102	0.07830045	-0.42230570	0.33367093	0.38697392	-0.60821166	-0.18752050	-0.47666410	-0.82644292	0.05687606	-0.14952748
1813	18.12000000	-0.92601892	-0.17268875	0.11737961	-0.46757006	0.21045434	-0.78403063	-0.58861543	-0.54203929	-0.19117223	-0.79652999	-0.24031958	0.07239621	-0.36058034	0.74147466	0.08217293	-0.43212801	0.32421193	0.38347691	-0.60391285	-0.18448572	-0.47718074	-0.83004917	0.07712789	-0.11117928
1814	18.13000000	-0.93225382	-0.16835205	0.11873737	-0.46451122	0.20457923	-0.78660176	-0.58041728	-0.54921049	-0.17568149	-0.79099147	-0.24583453	0.07409974	-0.34132846	0.75536975	0.07432659	-0.44251367	0.30640347	0.37164503	-0.60139976	-0.17980851	-0.47647754	-0.82644615	0.09605383	-0.07337658
1815	18.14000000	-0.92943178	-0.16564063	0.12315445	-0.46176170	0.19811232	-0.78514637	-0.57219617	-0.55719848	-0.16837911	-0.78747925	-0.25825395	0.07799735	-0.32151218	0.76525488	0.07024727	-0.45942800	0.29026324	0.35866919	-0.60493513	-0.18563708	-0.47657948	-0.82621537	0.10658851	-0.02710936
1816	18.15000000	-0.93424377	-0.15818934	0.12310801	-0.46266204	0.19269283	-0.78963478	-0.57333456	-0.55893303	-0.17159283	-0.78385555	-0.27234268	0.07973877	-0.30092012	0.76993681	0.06043397	-0.46670630	0.27485159	0.34740153	-0.60714004	-0.18170950	-0.47456333	-0.83076261	0.12305080	0.00609783
1817	18.16000000	-0.93947854	-0.15421666	0.12139549	-0.46271017	0.18736715	-0.79248497	-0.57253727	-0.55752213	-0.16975875	-0.77773847	-0.28054298	0.08329021	-0.28808878	0.77335159	0.04914571	-0.47260960	0.26253429	0.33743470	-0.60645643	-0.18234770	-0.47711075	-0.82451128	0.13643186	0.02817615
1818	18.17000000	-0.93785427	-0.15273197	0.12493623	-0.46713814	0.17919837	-0.79499262	-0.57461642	-0.56007820	-0.16494615	-0.77223911	-0.28801968	0.08075224	-0.28088559	0.78416050	0.03401970	-0.47729039	0.25012520	0.32143864	-0.60932390	-0.18858637	-0.47784351	-0.82156990	0.15379017	0.05347853
1819	18.18000000	-0.93735715	-0.14720507	0.12809955	-0.46093098	0.17253765	-0.79287527	-0.57559508	-0.56215282	-0.17002936	-0.76461346	-0.29707622	0.07791351	-0.26481302	0.78849459	0.02055232	-0.47872154	0.24482122	0.32409635	-0.60794899	-0.18874525	-0.48323764	-0.81369579	0.17318807	0.04435494
1820	18.19000000	-0.93858453	-0.14826637	0.12735777	-0.45822767	0.16484508	-0.79548544	-0.57109027	-0.56382963	-0.18579622	-0.76374423	-0.30102386	0.07504636	-0.25812131	0.78551393	0.00020794	-0.48897341	0.23069674	0.31445408	-0.60870250	-0.18687759	-0.48106858	-0.81493668	0.17872925	0.02547170
1821	18.20000000	-0.93675820	-0.14306018	0.12869742	-0.46144678	0.16114347	-0.79879483	-0.57088254	-0.56266767	-0.19145914	-0.76264391	-0.31128569	0.07345946	-0.25249022	0.79024531	-0.01876635	-0.48561060	0.22603042	0.31266827	-0.60547275	-0.18749327	-0.48564815	-0.81404982	0.19392192	0.02178144
1822	18.21000000	-0.94102146	-0.13817623	0.13280926	-0.46050649	0.15729223	-0.80587933	-0.55941756	-0.56233912	-0.19956658	-0.75685402	-0.32331133	0.06891027	-0.25804920	0.78916033	-0.04601265	-0.48916302	0.22282685	0.30210540	-0.60777648	-0.19000659	-0.48193678	-0.80782312	0.19833499	0.00833176
1823	18.22000000	-0.94224205	-0.14100028	0.13435968	-0.45536851	0.15613752	-0.80837293	-0.56088863	-0.56662033	-0.20827506	-0.75163091	-0.33358721	0.07732959	-0.26439807	0.78559255	-0.07194320	-0.48933169	0.21008528	0.29695734	-0.60728344	-0.19111336	-0.48370537	-0.81319046	0.20343669	-0.00437871
1824	18.23000000	-0.94007817	-0.13384018	0.13744109	-0.45441885	0.15139528	-0.80933350	-0.56444686	-0.56799162	-0.19977248	-0.74819285	-0.34313327	0.08891518	-0.27900098	0.77928630	-0.08891073	-0.49255407	0.20448945	0.29033876	-0.60762176	-0.19189482	-0.48124289	-0.81129394	0.20124174	-0.02106673
1825	18.24000000	-0.94331707	-0.12933527	0.13989901	-0.45062211	0.14097437	-0.81323377	-0.55469233	-0.57126624	-0.20127354	-0.74299599	-0.34828633	0.09748812	-0.29113416	0.77513382	-0.10334019	-0.50179452	0.19782598	0.28915065	-0.60670222	-0.19235917	-0.48227032	-0.81005527	0.19206953	-0.04595570
1826	18.25000000	-0.93844354	-0.12346480	0.14202275	-0.45018561	0.13666269	-0.81608206	-0.55526358	-0.57391735	-0.20174311	-0.74333036	-0.35687883	0.10426940	-0.30265393	0.76702500	-0.10981942	-0.50380209	0.18564413	0.28374467	-0.60550525	-0.19277360	-0.48451351	-0.81232805	0.18845020	-0.06921806
1827	18.26000000	-0.93784134	-0.12338636	0.14527962	-0.44909553	0.13441365	-0.81967595	-0.55423461	-0.57571465	-0.18943505	-0.73882499	-0.36328545	0.10710825	-0.32065531	0.75559518	-0.11425093	-0.50943230	0.17132271	0.28366836	-0.60750631	-0.20134897	-0.48637626	-0.80934442	0.17352693	-0.09127216
